<svg width="179" height="89" viewBox="0 0 179 89" fill="none" xmlns="http://www.w3.org/2000/svg">
<path d="M18.384 35.192C18.256 34.8507 20.24 34.68 24.336 34.68C28.4747 34.68 30.544 34.7867 30.544 35L35.152 56.76L38.608 35.32C38.736 34.936 40.848 34.744 44.944 34.744C49.0827 34.744 51.088 34.9147 50.96 35.256L41.936 66.552C41.6373 66.9787 39.0987 67.192 34.32 67.192C29.5413 67.192 26.9813 66.872 26.64 66.232L18.384 35.192ZM57.007 63.224C54.3617 60.28 53.039 56.2053 53.039 51C53.039 45.7947 54.3617 41.72 57.007 38.776C59.695 35.832 63.3003 34.36 67.823 34.36C72.3457 34.36 75.9297 35.832 78.575 38.776C81.2203 41.72 82.543 45.7947 82.543 51C82.543 56.2053 81.2203 60.28 78.575 63.224C75.9297 66.168 72.3457 67.64 67.823 67.64C63.3003 67.64 59.695 66.168 57.007 63.224ZM67.823 45.048C65.4337 45.048 64.239 47.0107 64.239 50.936C64.239 54.8613 65.4337 56.824 67.823 56.824C70.255 56.824 71.471 54.8613 71.471 50.936C71.471 47.0107 70.255 45.048 67.823 45.048ZM87.0675 22.712C87.0675 22.0293 89.0088 21.688 92.8915 21.688C96.5182 21.816 98.3315 22.0933 98.3315 22.52V47.096L104.668 35.384C104.966 34.744 106.78 34.424 110.108 34.424C113.436 34.424 115.569 34.6373 116.507 35.064L108.188 48.632L117.788 66.616C117.873 66.7867 117.062 66.9147 115.356 67C113.692 67.128 112.305 67.192 111.196 67.192C107.1 67.192 104.902 67 104.604 66.616L98.2675 52.408V66.552C98.2675 67.1067 96.3902 67.384 92.6355 67.384C88.9235 67.384 87.0675 67.128 87.0675 66.616V22.712ZM121.161 55.48C124.617 57.5707 127.348 58.616 129.354 58.616C130.634 58.616 131.274 58.168 131.274 57.272C131.274 56.632 130.164 55.8 127.946 54.776C122.612 52.6 119.946 49.0373 119.946 44.088C119.946 40.9307 121.098 38.52 123.402 36.856C125.706 35.192 128.458 34.36 131.658 34.36C134.9 34.36 137.631 34.7013 139.85 35.384C142.111 36.0667 143.242 36.9627 143.242 38.072C143.242 39.0107 142.772 40.248 141.834 41.784C140.938 43.32 140.319 44.152 139.978 44.28C138.143 43.256 136.159 42.744 134.026 42.744C132.874 42.744 132.298 43.1493 132.298 43.96C132.298 44.472 132.511 44.92 132.938 45.304C133.407 45.6453 134.239 46.0933 135.434 46.648C136.628 47.16 137.61 47.6293 138.378 48.056C139.188 48.4827 140.084 49.08 141.066 49.848C143.114 51.4693 144.138 53.5813 144.138 56.184C144.138 59.5973 143.007 62.3707 140.746 64.504C138.484 66.5947 135.071 67.64 130.506 67.64C127.476 67.64 124.724 67.128 122.25 66.104C119.775 65.08 118.538 63.672 118.538 61.88C118.538 60.6853 118.815 59.4267 119.37 58.104C119.967 56.7813 120.564 55.9067 121.161 55.48ZM159.126 67.192C159.126 67.4907 157.099 67.64 153.046 67.64C149.035 67.64 147.03 67.512 147.03 67.256V55.736C147.03 55.352 149.035 55.16 153.046 55.16C157.099 55.16 159.126 55.2667 159.126 55.48V67.192Z" fill="black"/>
</svg>
